# xmcd CD database file
#
# Track frame offsets:
#	150
#	20033
#	35718
#	53495
#	71002
#	83817
#	99319
#	113692
#	131157
#	149671
#	161120
#	175753
#	189116
#	202992
#	221423
#
# Disc length: 3173 seconds
#
# Revision: 0
# Processed by: cddbd v1.5.1PL2 Copyright (c) Steve Scherf et al.
# Submitted via: CDex 1.50beta9
#
DISCID=d20c630f
DTITLE=Miles Davis arr. Jamie Findlay - Miles Davis For Solo Guitar
DYEAR=2006
DGENRE=Jazz
TTITLE0=All Blues
TTITLE1=All of You
TTITLE2=Blue In Green
TTITLE3=Bye Bye Blackbird
TTITLE4=Four
TTITLE5=Freddie Freeloader
TTITLE6=I Could Write a Book
TTITLE7=Milestones
TTITLE8=Nardis
TTITLE9=Nefertiti
TTITLE10=Seven Steps to Heaven
TTITLE11=Solar
TTITLE12=So What
TTITLE13=There Is No Greater Love
TTITLE14=When I Fall in Love
EXTD=YEAR: 2006
EXTT0=
EXTT1=
EXTT2=
EXTT3=
EXTT4=
EXTT5=
EXTT6=
EXTT7=
EXTT8=
EXTT9=
EXTT10=
EXTT11=
EXTT12=
EXTT13=
EXTT14=
PLAYORDER=
